Units are S.I. units (second, meters, Newtons, ...)
Angles are in degrees.
name walk
datarows 22
datacolumns 25
range 0.00000 21.00000
endheader
time Pelvis_PX Pelvis_PY Pelvis_PZ Pelvis_X Pelvis_Y Pelvis_Z FemurR_X FemurR_Y FemurR_Z TibiaR_X TibiaR_Y TibiaR_Z TalusR_X TalusR_Y TalusR_Z FemurL_X FemurL_Y FemurL_Z TibiaL_X TibiaL_Y TibiaL_Z TalusL_X TalusL_Y TalusL_Z
0.00000 -421.447 941.226 -90.821 -0.00588 -0.23075 15.53840 -1.76875 -1.09705 36.23450 -0.17529 -22.47300 0.27320 0.99313 6.73802 -0.06724 2.08086 -11.18010 -1.54539 1.31190 -2.52182 5.21088 3.18767 10.83650 5.76408
1.00000 -411.747 940.517 -91.062 0.00916 -0.21896 15.53735 -1.66811 -0.96792 36.52880 0.05789 -22.47490 2.16692 0.90612 6.21508 -0.05436 1.65111 -11.32380 -1.83567 1.19138 -2.14040 6.29480 3.83188 11.20350 5.23768
2.00000 -402.920 939.708 -91.190 0.03765 -0.23537 15.52105 -1.47609 -0.65775 36.79750 0.34961 -22.55580 4.22773 0.72565 5.61064 -0.65271 1.18037 -11.54750 -2.09780 1.05217 -1.78685 7.53174 4.45810 11.66110 4.57951
3.00000 -393.324 938.954 -91.435 0.08208 -0.28874 15.50780 -1.19545 -0.14918 36.95700 0.66763 -22.83070 5.98668 0.54693 5.06800 -1.93492 0.67515 -11.81020 -2.29264 0.88149 -1.55730 8.94775 5.03009 12.24440 3.74361
4.00000 -383.803 938.199 -91.691 0.13591 -0.37910 15.52700 -0.85008 0.55034 37.00950 0.99913 -23.22950 7.32151 0.39214 4.67473 -3.51226 0.14599 -12.03010 -2.34278 0.67123 -1.58897 10.57920 5.48385 12.98260 2.66172
5.00000 -374.185 937.665 -92.039 0.18079 -0.49437 15.59290 -0.48597 1.36386 37.03930 1.39308 -23.39520 8.55762 0.10539 4.32628 -4.75606 -0.39106 -12.12270 -2.16081 0.42525 -2.01957 12.47510 5.73442 13.88580 1.25774
6.00000 -364.561 937.418 -92.359 0.19967 -0.61443 15.68665 -0.13384 2.12441 37.15440 1.89711 -22.92200 10.13030 -0.57756 3.79768 -5.22400 -0.91265 -12.05210 -1.69235 0.16067 -2.91944 14.69330 5.68793 14.93010 -0.52039
7.00000 -354.836 937.546 -92.711 0.18990 -0.71758 15.75985 0.22006 2.63909 37.37090 2.44461 -21.68450 12.13580 -1.68595 2.94421 -4.86193 -1.40099 -11.85400 -0.94356 -0.09904 -4.22572 17.28760 5.26489 16.03850 -2.66369
8.00000 -345.148 938.016 -93.220 0.16011 -0.78703 15.75275 0.61316 2.76692 37.54230 2.86342 -19.90880 14.26430 -2.92190 1.83693 -3.98147 -1.86063 -11.60400 0.03224 -0.33573 -5.71700 20.29980 4.44019 17.05540 -5.06071
9.00000 -335.532 938.671 -93.799 0.11901 -0.81517 15.61965 1.06101 2.45824 37.43520 3.02391 -18.02000 16.10280 -3.97201 0.79957 -2.92958 -2.31943 -11.37180 1.17229 -0.54113 -7.05351 23.75910 3.27308 17.74010 -7.47449
10.00000 -326.016 939.411 -94.297 0.06983 -0.80447 15.35085 1.53942 1.77983 36.87620 2.93409 -16.41170 17.37110 -4.70207 0.18183 -1.87745 -2.80775 -11.19750 2.43453 -0.72006 -7.89970 27.65850 1.88543 17.83180 -9.62704
11.00000 -316.404 940.213 -94.743 0.01243 -0.76385 14.98410 2.00533 0.91202 35.84110 2.70238 -15.29540 17.96730 -5.14097 0.09410 -0.89911 -3.33226 -11.07790 3.81113 -0.89490 -8.09405 31.91610 0.44000 17.17090 -11.39070
12.00000 -307.002 941.183 -95.168 -0.05058 -0.70338 14.59400 2.41763 0.06137 34.44870 2.45282 -14.72020 17.95400 -5.37586 0.44113 -0.03031 -3.86344 -10.96070 5.32298 -1.08891 -7.72332 36.37250 -0.81564 15.79760 -12.83380
13.00000 -297.660 942.285 -95.525 -0.10978 -0.63203 14.26240 2.74759 -0.66543 32.90140 2.25494 -14.62280 17.51260 -5.47688 1.08257 0.73205 -4.34125 -10.75980 6.99738 -1.29413 -7.04817 40.83630 -1.63879 13.96520 -13.98510
14.00000 -288.445 943.428 -96.011 -0.15386 -0.55940 14.04640 2.98178 -1.28937 31.39810 2.10815 -14.85360 16.85930 -5.48578 1.89625 1.41050 -4.69398 -10.38740 8.84131 -1.46478 -6.38341 45.13430 -2.01036 12.05580 -14.67460
15.00000 -279.266 944.648 -96.508 -0.17595 -0.49677 13.96295 3.11274 -1.89808 30.06310 1.97832 -15.20100 16.16960 -5.42065 2.75921 2.02733 -4.85830 -9.78184 10.82930 -1.53737 -5.99797 49.13700 -2.16485 10.42660 -14.68610
16.00000 -270.439 945.938 -96.974 -0.17361 -0.45410 13.99715 3.13539 -2.57045 28.92650 1.83952 -15.43550 15.54260 -5.29503 3.53464 2.59754 -4.79324 -8.92637 12.91200 -1.45217 -6.05672 52.75100 -2.35439 9.28944 -13.99320
17.00000 -261.587 947.261 -97.532 -0.14763 -0.43717 14.11940 3.05772 -3.32149 27.94550 1.69035 -15.36840 14.99950 -5.13417 4.08453 3.12687 -4.49313 -7.84724 15.03530 -1.16332 -6.61749 55.90760 -2.67141 8.69693 -12.80190
18.00000 -252.783 948.476 -98.026 -0.10083 -0.44535 14.29700 2.91093 -4.11268 27.04970 1.54007 -14.91020 14.51400 -4.96381 4.32225 3.61549 -3.99205 -6.61116 17.14790 -0.65372 -7.64597 58.56590 -3.09505 8.60103 -11.39980
19.00000 -244.060 949.572 -98.469 -0.03752 -0.47104 14.49660 2.74436 -4.89463 26.17660 1.39104 -14.10080 14.04650 -4.79744 4.26684 4.06291 -3.35478 -5.31970 19.19890 0.05241 -9.01802 60.72400 -3.55071 8.88039 -9.99642
20.00000 -235.459 950.623 -98.839 0.03365 -0.50280 14.68395 2.60346 -5.62320 25.27930 1.23965 -13.09710 13.55960 -4.63894 4.04400 4.46915 -2.66008 -4.08754 21.14180 0.89503 -10.53400 62.41820 -3.95071 9.34871 -8.67367
21.00000 -226.891 951.541 -99.315 0.10025 -0.52898 14.82585 2.50812 -6.28734 24.32180 1.07926 -12.08230 13.02430 -4.48482 3.82686 4.83539 -1.97789 -3.01550 22.94150 1.79702 -11.97190 63.70410 -4.26497 9.80511 -7.42320
